#!OML:ASF F:\VICON\USERDATA\INSTALL\rory3\rory3.ASF
:FULLY-SPECIFIED
:DEGREES
5307
root -4.59526 14.3691 -13.3756 -546.804 -10.1353 535.998
lowerback 19.7335 -1.15794 -11.1829
upperback 0.903603 -3.99161 3.31578
thorax -9.09306 -1.47157 11.2443
lowerneck -13.3095 -7.74224 -2.98363
upperneck 21.4518 -9.18106 -1.14563
head 9.00149 -4.41332 -0.928388
rclavicle 1.61513e-014 5.64548e-014
rhumerus 22.6721 14.5465 -66.0341
rradius 92.3412
rwrist -47.5046
rhand -6.60338 19.4124
rfingers 7.12502
rthumb 19.2522 -9.65461
lclavicle 1.61513e-014 5.64548e-014
lhumerus 74.1962 -73.3023 25.9316
lradius 78.2066
lwrist 94.6006
lhand -1.34981 34.9041
lfingers 7.12502
lthumb 24.2969 63.3843
rfemur -32.2087 13.9164 -6.70664
rtibia 28.8001
rfoot 10.1625 -12.5169
rtoes -23.6979
lfemur -18.8748 16.6941 -23.3534
ltibia 65.0415
lfoot -33.7367 -0.615637
ltoes 8.2152
5308
root -4.58257 14.3688 -13.3476 -547.013 -10.1401 536.481
lowerback 20.1705 -1.02682 -10.8895
upperback 1.02914 -3.80181 3.50738
thorax -9.24921 -1.39174 11.2824
lowerneck -13.998 -7.69898 -2.92125
upperneck 21.6915 -9.11855 -1.19277
head 9.20455 -4.38401 -0.983079
rclavicle -1.61513e-014 5.64548e-014
rhumerus 22.7921 14.3923 -66.1037
rradius 92.2595
rwrist -47.1014
rhand -6.52256 20.0083
rfingers 7.12502
rthumb 19.33 -9.05095
lclavicle -1.61513e-014 5.64548e-014
lhumerus 74.5179 -73.1195 25.61
lradius 78.1606
lwrist 94.65
lhand -1.40017 34.2422
lfingers 7.12502
lthumb 24.2486 62.7289
rfemur -32.035 14.6778 -6.32725
rtibia 28.4937
rfoot 9.95828 -13.4857
rtoes -22.1455
lfemur -19.1501 16.8194 -22.7357
ltibia 65.332
lfoot -33.6119 -0.576248
ltoes 7.46746
5309
root -4.57431 14.3575 -13.3316 -547.312 -10.1625 536.444
lowerback 20.4852 -0.83128 -11.0204
upperback 1.21827 -3.62368 3.52408
thorax -9.24854 -1.31969 11.3532
lowerneck -14.5583 -7.53627 -2.6042
upperneck 21.9688 -8.91399 -1.3695
head 9.37668 -4.27704 -1.09778
rclavicle -2.88238e-015 1.43125e-014
rhumerus 22.546 14.172 -66.3941
rradius 92.086
rwrist -46.6633
rhand -6.51583 20.0731
rfingers 7.12502
rthumb 19.3364 -8.98553
lclavicle -2.88238e-015 1.43125e-014
lhumerus 74.7349 -73.0672 25.4846
lradius 78.0069
lwrist 94.5643
lhand -1.28707 32.6304
lfingers 7.12502
lthumb 24.357 61.1026
rfemur -31.6639 15.0016 -6.34835
rtibia 28.2501
rfoot 10.2625 -13.5576
rtoes -23.1805
lfemur -18.9952 16.8985 -22.6679
ltibia 65.4837
lfoot -33.5327 -0.382717
ltoes 6.38428
5310
root -4.57769 14.3551 -13.3229 -547.474 -10.371 536.321
lowerback 20.5641 -0.776955 -11.0958
upperback 1.33026 -3.5894 3.48376
thorax -9.17312 -1.31791 11.3426
lowerneck -14.2019 -6.92539 -3.56703
upperneck 21.5536 -9.53413 -0.602046
head 9.2617 -5.09327 -0.824207
rclavicle -6.0033e-014 2.94201e-014
rhumerus 22.3748 14.0717 -66.6624
rradius 92.325
rwrist -46.0434
rhand -6.80292 18.421
rfingers 7.12502
rthumb 19.0604 -10.665
lclavicle -6.0033e-014 2.94201e-014
lhumerus 74.7725 -73.0976 25.4573
lradius 77.8659
lwrist 94.3785
lhand -0.149843 35.8682
lfingers 7.12502
lthumb 25.4468 64.1895
rfemur -31.2664 14.9584 -6.49702
rtibia 28.0532
rfoot 10.4438 -13.445
rtoes -24.4586
lfemur -18.744 16.7243 -22.8137
ltibia 65.442
lfoot -33.4947 -0.649445
ltoes 6.85486
5311
root -4.58025 14.3548 -13.3142 -547.471 -10.6447 536.291
lowerback 20.4458 -0.78751 -11.1108
upperback 1.41479 -3.59781 3.46137
thorax -9.01086 -1.34242 11.3118
lowerneck -14.0733 -6.98144 -3.63073
upperneck 21.2885 -9.58315 -0.543251
head 9.15335 -5.10785 -0.785644
rclavicle 5.4467e-014 3.18055e-014
rhumerus 22.4929 14.021 -66.7334
rradius 92.3765
rwrist -46.1711
rhand -6.76242 19.2093
rfingers 7.12502
rthumb 19.0993 -9.87289
lclavicle 5.4467e-014 3.18055e-014
lhumerus 74.5695 -73.0969 25.6236
lradius 77.7431
lwrist 94.2265
lhand -1.29998 35.1134
lfingers 7.12502
lthumb 24.3447 63.5872
rfemur -31.1114 14.9228 -6.63747
rtibia 28.0412
rfoot 9.82617 -13.9855
rtoes -21.5286
lfemur -18.77 16.4892 -22.938
ltibia 65.3727
lfoot -33.4494 -0.671589
ltoes 6.87982
5312
root -4.57907 14.37 -13.3108 -547.174 -11.033 536.013
lowerback 19.9963 -0.811506 -11.4365
upperback 1.43089 -3.64726 3.38485
thorax -8.71727 -1.37619 11.3861
lowerneck -14.0601 -6.92035 -3.43191
upperneck 21.1842 -9.50187 -0.643525
head 9.09736 -5.06118 -0.835265
rclavicle -4.49253e-014 2.22639e-014
rhumerus 22.5885 13.9076 -66.7377
rradius 92.5233
rwrist -46.225
rhand -6.91327 19.5408
rfingers 7.12502
rthumb 18.9542 -9.55573
lclavicle -4.49253e-014 2.22639e-014
lhumerus 74.408 -73.1529 25.789
lradius 77.6277
lwrist 94.028
lhand -0.762402 36.0467
lfingers 7.12502
lthumb 24.8599 64.4503
rfemur -31.062 14.9529 -7.16121
rtibia 27.8983
rfoot 9.28319 -14.6413
rtoes -19.4502
lfemur -19.018 16.1279 -23.4288
ltibia 65.2187
lfoot -33.3315 -0.501989
ltoes 6.69762
5313
root -4.55711 14.3883 -13.3224 -546.566 -11.495 536.045
lowerback 19.0722 -0.900606 -11.869
upperback 1.32126 -3.71501 3.49884
thorax -8.27668 -1.41065 11.715
lowerneck -14.4654 -6.68743 -2.87784
upperneck 21.6566 -9.22668 -1.06979
head 9.28051 -4.93999 -1.06352
rclavicle -8.46823e-014 2.94201e-014
rhumerus 22.2764 13.754 -66.9742
rradius 92.4191
rwrist -46.08
rhand -6.68376 19.6087
rfingers 7.12502
rthumb 19.175 -9.46604
lclavicle -8.46823e-014 2.94201e-014
lhumerus 74.2639 -73.3394 25.9302
lradius 77.5642
lwrist 93.8802
lhand -2.78878 34.0389
lfingers 7.12502
lthumb 22.9167 62.6971
rfemur -31.2824 15.5064 -7.52524
rtibia 27.7568
rfoot 7.8369 -16.269
rtoes -14.4632
lfemur -19.7044 15.9041 -23.4612
ltibia 65.2033
lfoot -33.1848 -0.546731
ltoes 6.31794
5314
root -4.55564 14.3902 -13.3035 -546.799 -11.5237 536.448
lowerback 19.3375 -0.836671 -11.4513
upperback 1.35212 -3.57283 3.57723
thorax -8.44826 -1.34723 11.5484
lowerneck -14.5139 -6.97568 -3.37445
upperneck 21.7015 -9.5881 -0.751233
head 9.35281 -5.1094 -0.92833
rclavicle -9.25343e-014 -1.82882e-014
rhumerus 22.0387 13.6764 -67.1854
rradius 92.5637
rwrist -45.9009
rhand -6.87982 19.2231
rfingers 7.12502
rthumb 18.9864 -9.87026
lclavicle -9.25343e-014 -1.82882e-014
lhumerus 74.3277 -73.5059 25.8104
lradius 77.4474
lwrist 93.8004
lhand -1.69834 34.8432
lfingers 7.12502
lthumb 23.9627 63.3677
rfemur -30.979 15.8181 -7.13021
rtibia 27.5358
rfoot 7.71731 -16.6023
rtoes -14.4838
lfemur -19.6742 16.0074 -22.9863
ltibia 65.3013
lfoot -33.0971 -0.68099
ltoes 6.67238
5315
root -4.5651 14.388 -13.2817 -546.762 -11.904 536.555
lowerback 19.4003 -0.931547 -11.1463
upperback 1.32144 -3.63882 3.57535
thorax -8.51749 -1.38288 11.3877
lowerneck -14.9613 -7.0949 -3.54651
upperneck 21.9597 -9.71309 -0.690681
head 9.54058 -5.16594 -0.92547
rclavicle -1.36167e-014 1.82882e-014
rhumerus 22.1505 13.8122 -67.0195
rradius 93.1253
rwrist -45.9463
rhand -7.49923 18.4234
rfingers 7.12502
rthumb 18.3906 -10.7273
lclavicle -1.36167e-014 1.82882e-014
lhumerus 73.852 -73.6195 26.2808
lradius 77.3093
lwrist 93.6835
lhand -1.40452 35.0947
lfingers 7.12502
lthumb 24.2444 63.5819
rfemur -30.6648 15.264 -7.07538
rtibia 27.3382
rfoot 7.70236 -16.4568
rtoes -13.7365
lfemur -19.9192 15.5866 -23.1122
ltibia 65.4396
lfoot -33.1032 -0.602218
ltoes 6.76164
5316
root -4.56092 14.3864 -13.2684 -546.815 -12.0402 536.779
lowerback 19.4846 -0.902988 -11.009
upperback 1.26649 -3.57229 3.65834
thorax -8.64618 -1.33981 11.3985
lowerneck -15.0885 -7.11047 -3.56515
upperneck 22.0422 -9.72129 -0.706239
head 9.5935 -5.17056 -0.937228
rclavicle -2.83268e-015 4.13472e-014
rhumerus 22.1132 13.9001 -67.0073
rradius 93.339
rwrist -46.0876
rhand -7.54754 18.3566
rfingers 7.12502
rthumb 18.3441 -10.7984
lclavicle -2.83268e-015 4.13472e-014
lhumerus 72.8958 -73.8841 27.2307
lradius 77.1968
lwrist 93.4478
lhand -1.64501 35.0956
lfingers 7.12502
lthumb 24.0138 63.6134
rfemur -30.4252 15.3492 -6.89023
rtibia 27.0113
rfoot 7.43116 -16.8846
rtoes -11.7776
lfemur -20.1206 15.4084 -22.917
ltibia 65.655
lfoot -33.1235 -0.558094
ltoes 6.47924
